<svg width="26" height="22" viewBox="0 0 26 22" fill="none" xmlns="http://www.w3.org/2000/svg">
<path d="M24.9599 0.19774C24.8104 0.0955672 24.6061 0.0807356 24.4377 0.159837L1.18768 11.1286C1.01928 11.2077 0.920893 11.3675 0.939814 11.534C0.956843 11.7004 1.0855 11.8421 1.26715 11.8932L7.87622 13.7719L7.23669 19.4705C7.21588 19.6518 7.33129 19.8232 7.52239 19.894C7.58294 19.9187 7.64917 19.9303 7.7135 19.9303C7.84783 19.9303 7.98028 19.8808 8.07299 19.7886L12.2413 15.6868L18.5173 21.0756C18.6082 21.1531 18.7292 21.1959 18.8541 21.1959C18.8976 21.1959 18.9412 21.1893 18.9847 21.1794C19.1493 21.1399 19.2779 21.0245 19.3196 20.8795L25.1321 0.629503C25.1775 0.468004 25.1113 0.298265 24.9599 0.19774ZM8.84875 13.6944L18.2997 7.03838L11.8591 14.8052L8.3341 18.2708L8.84875 13.6944Z" fill="white"/>
</svg>
